<?xml version="1.0" encoding="UTF-8" standalone="no"?>
<!DOCTYPE svg PUBLIC "-//W3C//DTD SVG 1.1//EN" "http://www.w3.org/Graphics/SVG/1.1/DTD/svg11.dtd">
<svg width="100%" height="100%" viewBox="0 0 32 32" version="1.1" xmlns="http://www.w3.org/2000/svg" xmlns:xlink="http://www.w3.org/1999/xlink" xml:space="preserve" xmlns:serif="http://www.serif.com/" style="fill-rule:evenodd;clip-rule:evenodd;stroke-linejoin:round;stroke-miterlimit:2;">
    <rect id="Flightsimto" x="0" y="0" width="32" height="32" style="fill:none;"/>
    <path d="M28.19,6.43c2.073,2.636 3.31,5.96 3.31,9.57c-0,8.555 -6.945,15.5 -15.5,15.5c-8.555,-0 -15.5,-6.945 -15.5,-15.5c-0,-8.555 6.945,-15.5 15.5,-15.5c3.551,0 6.825,1.197 9.439,3.209l-20.939,7.791l7,7l15,-14c0.092,0.088 0.368,0.452 0.458,0.542l-17.458,17.458l-1.5,-5.5l1,6l6,1l-1.5,-3.5l7.5,7.5l7.19,-21.57Z" style="fill:rgb(84,84,84);"/>
</svg>
