<svg width="100" height="100" viewBox="0 0 100 100" fill="none" xmlns="http://www.w3.org/2000/svg">
<path fill-rule="evenodd" clip-rule="evenodd" d="M12 21C10.8954 21 10 21.8954 10 23V78C10 79.1046 10.8954 80 12 80H88C89.1046 80 90 79.1046 90 78V23C90 21.8954 89.1046 21 88 21H12ZM30 25C28.8954 25 28 25.8954 28 27V74C28 75.1046 28.8954 76 30 76H70C71.1046 76 72 75.1046 72 74V27C72 25.8954 71.1046 25 70 25H30ZM14 27C14 25.8954 14.8954 25 16 25H22C23.1046 25 24 25.8954 24 27V32C24 33.1046 23.1046 34 22 34H16C14.8954 34 14 33.1046 14 32V27ZM78 25C76.8954 25 76 25.8954 76 27V32C76 33.1046 76.8954 34 78 34H84C85.1046 34 86 33.1046 86 32V27C86 25.8954 85.1046 25 84 25H78ZM14 41C14 39.8954 14.8954 39 16 39H22C23.1046 39 24 39.8954 24 41V46C24 47.1046 23.1046 48 22 48H16C14.8954 48 14 47.1046 14 46V41ZM78 39C76.8954 39 76 39.8954 76 41V46C76 47.1046 76.8954 48 78 48H84C85.1046 48 86 47.1046 86 46V41C86 39.8954 85.1046 39 84 39H78ZM14 55C14 53.8954 14.8954 53 16 53H22C23.1046 53 24 53.8954 24 55V60C24 61.1046 23.1046 62 22 62H16C14.8954 62 14 61.1046 14 60V55ZM78 53C76.8954 53 76 53.8954 76 55V60C76 61.1046 76.8954 62 78 62H84C85.1046 62 86 61.1046 86 60V55C86 53.8954 85.1046 53 84 53H78ZM14 69C14 67.8954 14.8954 67 16 67H22C23.1046 67 24 67.8954 24 69V74C24 75.1046 23.1046 76 22 76H16C14.8954 76 14 75.1046 14 74V69ZM78 67C76.8954 67 76 67.8954 76 69V74C76 75.1046 76.8954 76 78 76H84C85.1046 76 86 75.1046 86 74V69C86 67.8954 85.1046 67 84 67H78Z" fill="#E1A0FF"/>
<path d="M62 50.5L40.25 61.3253L40.25 39.6747L62 50.5Z" fill="#E1A0FF"/>
</svg>
